# xmcd
#
# Track frame offsets: 
#        150
#        11902
#        23258
#        33611
#        47616
#        59934
#        72345
#        94261
#        107249
#        118462
#        129761
#        140414
#        153112
#        164269
#        174819
#        188958
#
# Disc length: 2684 seconds
#
# Revision: 0
# Processed by: cddbd v1.5.2PL0 Copyright (c) Steve Scherf et al.
# Submitted via: ExactAudioCopy v0.95b4
#
DISCID=da0a7a10
DTITLE=Elmore James - One Way Out
DYEAR=1980
DGENRE=Blues
TTITLE0=Talk To Me Baby (I Can't Hold Out)
TTITLE1=Shake Your Moneymaker
TTITLE2=Can't Stop Lovin' My Baby
TTITLE3=It Hurts Me Too
TTITLE4=The Sky Is Crying
TTITLE5=Cry For Me Baby
TTITLE6=Something Inside Of Me
TTITLE7=Standing At The Crossroads
TTITLE8=Coming Home
TTITLE9=Rollin' and Tumblin'
TTITLE10=Take Me Where You Go
TTITLE11=I Need You
TTITLE12=Person To Person
TTITLE13=One Way Out
TTITLE14=The Twelve Year Old Boy
TTITLE15=Dust My Broom (I Believe My Time Ain't Long)
EXTD=
EXTT0=
EXTT1=
EXTT2=
EXTT3=
EXTT4=
EXTT5=
EXTT6=
EXTT7=
EXTT8=
EXTT9=
EXTT10=
EXTT11=
EXTT12=
EXTT13=
EXTT14=
EXTT15=
PLAYORDER=
